<?xml version="1.0" standalone="no"?>
<!DOCTYPE svg PUBLIC "-//W3C//DTD SVG 20010904//EN"
 "http://www.w3.org/TR/2001/REC-SVG-20010904/DTD/svg10.dtd">
<svg version="1.0" xmlns="http://www.w3.org/2000/svg"
 width="225.000000pt" height="225.000000pt" viewBox="0 0 225.000000 225.000000"
 preserveAspectRatio="xMidYMid meet">

<g transform="translate(0.000000,225.000000) scale(0.100000,-0.100000)"
fill="#000000" stroke="none">
<path d="M436 1316 c5 -21 -12 -89 -103 -409 -4 -16 2 -18 63 -15 l67 3 30
105 31 104 23 -52 c22 -51 23 -52 66 -52 38 0 48 5 92 50 27 27 50 48 52 46 2
-2 -7 -44 -22 -94 -14 -50 -25 -96 -25 -101 0 -7 25 -11 60 -11 53 0 62 3 70
23 6 12 37 113 69 225 l58 202 -66 0 -67 0 -89 -96 -89 -97 -31 94 -32 94 -82
3 -82 3 7 -25z"/>
<path d="M1029 1321 c8 -14 -2 -62 -42 -199 -29 -99 -60 -189 -70 -200 -9 -10
-17 -22 -17 -26 0 -3 87 -5 192 -4 l193 3 11 35 c6 19 14 48 18 63 l7 28 -30
-16 c-39 -20 -201 -22 -201 -2 0 7 20 83 45 169 25 86 45 160 45 163 0 3 -36
5 -80 5 -76 0 -80 -1 -71 -19z"/>
<path d="M1473 1320 c8 -29 -91 -371 -114 -396 -10 -11 -19 -24 -19 -28 0 -5
82 -6 183 -4 160 4 187 7 222 25 22 12 45 30 52 41 20 33 26 89 13 126 -10 32
-9 39 9 62 32 40 45 100 30 136 -21 50 -51 58 -225 58 -152 0 -156 -1 -151
-20z m244 -97 c11 -27 -32 -53 -89 -53 -47 0 -50 1 -44 23 3 12 6 28 6 35 0 8
19 12 60 12 47 0 62 -4 67 -17z m-46 -165 c5 -50 -19 -68 -88 -68 -56 0 -56 0
-47 49 6 31 7 31 70 31 44 0 64 -4 65 -12z"/>
</g>
</svg>
