<?xml version="1.0" standalone="no"?>
<!DOCTYPE svg PUBLIC "-//W3C//DTD SVG 20010904//EN"
 "http://www.w3.org/TR/2001/REC-SVG-20010904/DTD/svg10.dtd">
<svg version="1.0" xmlns="http://www.w3.org/2000/svg"
 width="970.000000pt" height="485.000000pt" viewBox="0 0 970.000000 485.000000"
 preserveAspectRatio="xMidYMid meet">

<g transform="translate(0.000000,485.000000) scale(0.100000,-0.100000)"
fill="#000000" stroke="none">
<path d="M1635 3088 c-58 -30 -91 -64 -115 -119 -20 -48 -21 -60 -18 -517 l3
-467 27 -47 c35 -59 67 -84 131 -103 43 -13 185 -15 994 -15 722 0 954 3 990
12 62 17 137 88 153 147 7 28 10 189 8 508 -3 438 -4 470 -22 503 -23 42 -57
74 -108 101 -36 18 -66 19 -1020 19 -974 -1 -983 -1 -1023 -22z m1438 -320
c176 -228 204 -276 177 -293 -5 -3 -30 1 -55 10 -30 10 -83 15 -156 15 -108 0
-110 0 -121 26 -10 21 -9 31 5 56 21 37 22 84 1 154 -44 154 -290 218 -406
107 -26 -25 -50 -76 -62 -135 -4 -17 -25 -40 -63 -67 l-58 -41 71 0 c84 0 91
-7 63 -70 -26 -58 -25 -70 10 -70 21 0 30 -6 35 -22 10 -40 7 -47 -34 -74 -75
-50 -130 -178 -130 -302 l0 -52 40 0 c34 0 43 -5 65 -37 l25 -38 -397 -3
c-374 -2 -399 -1 -423 16 -50 37 -50 37 -50 524 l0 456 26 31 c14 17 40 35 57
40 18 5 293 10 613 10 l581 1 186 -242z m567 224 c70 -34 70 -34 70 -525 0
-481 0 -485 -59 -520 -23 -14 -55 -17 -161 -17 l-131 0 3 38 3 37 85 3 c120 3
126 5 165 67 41 63 43 78 14 108 -11 12 -27 36 -34 54 -7 17 -26 39 -42 49
-49 31 -73 57 -73 79 0 13 -16 40 -35 61 -19 21 -37 46 -41 56 -3 10 -12 18
-20 18 -14 0 -31 24 -97 137 -16 26 -70 118 -121 203 -51 85 -91 158 -89 163
2 4 122 7 266 7 229 0 266 -2 297 -18z"/>
<path d="M1808 2246 c-23 -17 -39 -61 -31 -83 23 -65 95 -84 138 -37 32 35 32
78 0 109 -27 28 -79 33 -107 11z"/>
<path d="M4360 3103 c0 -5 9 -32 20 -62 25 -65 27 -55 -49 -316 -16 -55 -31
-109 -34 -120 -3 -11 -20 -69 -37 -130 -17 -60 -37 -132 -45 -160 -7 -27 -25
-90 -39 -140 -14 -49 -32 -112 -40 -140 -8 -27 -22 -77 -31 -110 -9 -33 -19
-67 -21 -76 -7 -24 23 -29 198 -29 170 0 182 3 194 58 3 15 12 47 20 72 8 25
34 115 59 200 73 253 76 260 83 260 4 0 22 -40 40 -90 18 -49 44 -114 57 -144
l25 -56 99 0 c55 0 107 -3 116 -6 12 -5 58 35 173 149 86 86 157 155 158 154
2 -1 -1 -18 -6 -37 -5 -19 -14 -55 -20 -80 -7 -25 -16 -54 -20 -65 -5 -11 -13
-40 -19 -65 -15 -71 -32 -133 -41 -155 -5 -11 -13 -40 -20 -65 -6 -25 -15 -61
-20 -80 -6 -24 -5 -37 3 -42 14 -9 338 -11 361 -2 9 3 16 14 16 23 0 10 6 37
14 62 8 24 21 69 30 99 9 30 28 96 42 145 14 50 30 108 36 130 5 21 19 73 32
115 13 41 38 127 56 190 18 63 46 160 62 215 16 55 36 125 44 155 9 30 22 74
30 98 8 23 14 45 14 47 0 3 -84 5 -188 5 l-187 0 -117 -127 c-64 -71 -125
-137 -135 -148 -10 -11 -63 -70 -118 -130 -55 -60 -108 -118 -117 -128 -9 -11
-21 -16 -26 -13 -5 3 -22 43 -36 88 -15 46 -31 92 -36 103 -4 11 -32 94 -62
185 l-53 165 -233 3 c-127 1 -232 -1 -232 -5z"/>
<path d="M6058 3104 c-3 -3 4 -32 17 -64 13 -32 21 -60 19 -62 -2 -2 -10 -28
-18 -58 -17 -65 -62 -223 -75 -265 -10 -34 -45 -154 -67 -235 -9 -30 -19 -66
-24 -80 -5 -14 -15 -50 -24 -80 -83 -301 -90 -319 -148 -377 -37 -38 -48 -54
-37 -58 8 -3 259 -4 559 -3 l545 3 13 40 c8 22 20 64 28 93 7 28 21 78 30 110
22 80 27 112 19 112 -4 0 -36 -16 -71 -35 l-63 -35 -260 0 c-257 0 -286 4
-263 33 5 7 12 23 15 37 10 51 106 391 162 575 8 28 29 97 45 155 17 58 35
119 40 136 22 67 33 64 -213 64 -123 0 -226 -3 -229 -6z"/>
<path d="M7310 3100 c0 -5 8 -31 18 -57 20 -52 20 -53 -18 -188 -12 -44 -26
-93 -30 -110 -5 -16 -25 -88 -45 -160 -49 -171 -51 -180 -70 -250 -38 -139
-45 -163 -60 -215 -9 -30 -22 -79 -28 -109 -9 -45 -21 -65 -69 -117 -32 -34
-58 -64 -58 -68 0 -11 884 -7 967 4 155 21 266 75 328 160 78 106 98 312 40
419 l-27 49 47 62 c56 73 86 132 110 217 47 168 -21 295 -189 353 -57 19 -83
20 -488 20 -268 0 -428 -4 -428 -10z m705 -305 c30 -29 30 -37 5 -93 -30 -66
-77 -82 -246 -82 -132 0 -134 0 -134 23 0 18 25 109 45 165 3 9 44 12 155 12
147 0 152 -1 175 -25z m-134 -484 c50 -40 19 -150 -51 -186 -39 -20 -340 -22
-340 -2 0 16 47 184 55 197 4 6 66 10 159 10 137 0 156 -2 177 -19z"/>
</g>
</svg>
